<svg width="275" height="275" viewBox="0 0 275 275" fill="none" xmlns="http://www.w3.org/2000/svg">
<rect x="137.5" width="194.454" height="194.454" rx="30" transform="rotate(45 137.5 0)" fill="#F14545"/>
<path d="M94.975 95.75H71.525C70.1923 95.75 68.9142 96.2715 67.9718 97.1998C67.0294 98.1281 66.5 99.3872 66.5 100.7V173.3C66.5 173.95 66.63 174.594 66.8825 175.194C67.135 175.795 67.5052 176.341 67.9718 176.8C68.4384 177.26 68.9924 177.624 69.602 177.873C70.2117 178.122 70.8651 178.25 71.525 178.25H94.975C95.6349 178.25 96.2883 178.122 96.898 177.873C97.5076 177.624 98.0616 177.26 98.5282 176.8C98.9948 176.341 99.365 175.795 99.6175 175.194C99.87 174.594 100 173.95 100 173.3V100.7C100 99.3872 99.4706 98.1281 98.5282 97.1998C97.5858 96.2715 96.3077 95.75 94.975 95.75ZM195.475 95.75H172.025C170.692 95.75 169.414 96.2715 168.472 97.1998C167.529 98.1281 167 99.3872 167 100.7V173.3C167 173.95 167.13 174.594 167.382 175.194C167.635 175.795 168.005 176.341 168.472 176.8C168.938 177.26 169.492 177.624 170.102 177.873C170.712 178.122 171.365 178.25 172.025 178.25H195.475C196.135 178.25 196.788 178.122 197.398 177.873C198.008 177.624 198.562 177.26 199.028 176.8C199.495 176.341 199.865 175.795 200.118 175.194C200.37 174.594 200.5 173.95 200.5 173.3V100.7C200.5 99.3872 199.971 98.1281 199.028 97.1998C198.086 96.2715 196.808 95.75 195.475 95.75Z" stroke="white" stroke-width="15" stroke-linecap="round" stroke-linejoin="round"/>
<path d="M100 137H167M41.375 156.8V117.2C41.375 115.887 41.9044 114.628 42.8468 113.7C43.7892 112.772 45.0673 112.25 46.4 112.25H61.475C62.8077 112.25 64.0858 112.772 65.0282 113.7C65.9706 114.628 66.5 115.887 66.5 117.2V156.8C66.5 158.113 65.9706 159.372 65.0282 160.3C64.0858 161.228 62.8077 161.75 61.475 161.75H46.4C45.0673 161.75 43.7892 161.228 42.8468 160.3C41.9044 159.372 41.375 158.113 41.375 156.8ZM225.625 156.8V117.2C225.625 115.887 225.096 114.628 224.153 113.7C223.211 112.772 221.933 112.25 220.6 112.25H205.525C204.192 112.25 202.914 112.772 201.972 113.7C201.029 114.628 200.5 115.887 200.5 117.2V156.8C200.5 158.113 201.029 159.372 201.972 160.3C202.914 161.228 204.192 161.75 205.525 161.75H220.6C221.933 161.75 223.211 161.228 224.153 160.3C225.096 159.372 225.625 158.113 225.625 156.8Z" stroke="white" stroke-width="15" stroke-linecap="round" stroke-linejoin="round"/>
</svg>
