<svg width="1066" height="387" viewBox="0 0 1066 387" fill="none" xmlns="http://www.w3.org/2000/svg">
<rect width="1066" height="387" fill="white"/>
<rect x="193.5" y="56" width="194.454" height="194.454" rx="30" transform="rotate(45 193.5 56)" fill="#F14545"/>
<path d="M150.975 151.75H127.525C126.192 151.75 124.914 152.272 123.972 153.2C123.029 154.128 122.5 155.387 122.5 156.7V229.3C122.5 229.95 122.63 230.594 122.883 231.194C123.135 231.795 123.505 232.341 123.972 232.8C124.438 233.26 124.992 233.624 125.602 233.873C126.212 234.122 126.865 234.25 127.525 234.25H150.975C151.635 234.25 152.288 234.122 152.898 233.873C153.508 233.624 154.062 233.26 154.528 232.8C154.995 232.341 155.365 231.795 155.617 231.194C155.87 230.594 156 229.95 156 229.3V156.7C156 155.387 155.471 154.128 154.528 153.2C153.586 152.272 152.308 151.75 150.975 151.75ZM251.475 151.75H228.025C226.692 151.75 225.414 152.272 224.472 153.2C223.529 154.128 223 155.387 223 156.7V229.3C223 229.95 223.13 230.594 223.382 231.194C223.635 231.795 224.005 232.341 224.472 232.8C224.938 233.26 225.492 233.624 226.102 233.873C226.712 234.122 227.365 234.25 228.025 234.25H251.475C252.135 234.25 252.788 234.122 253.398 233.873C254.008 233.624 254.562 233.26 255.028 232.8C255.495 232.341 255.865 231.795 256.118 231.194C256.37 230.594 256.5 229.95 256.5 229.3V156.7C256.5 155.387 255.971 154.128 255.028 153.2C254.086 152.272 252.808 151.75 251.475 151.75Z" stroke="white" stroke-width="15" stroke-linecap="round" stroke-linejoin="round"/>
<path d="M156 193H223M97.375 212.8V173.2C97.375 171.887 97.9044 170.628 98.8468 169.7C99.7892 168.772 101.067 168.25 102.4 168.25H117.475C118.808 168.25 120.086 168.772 121.028 169.7C121.971 170.628 122.5 171.887 122.5 173.2V212.8C122.5 214.113 121.971 215.372 121.028 216.3C120.086 217.228 118.808 217.75 117.475 217.75H102.4C101.067 217.75 99.7892 217.228 98.8468 216.3C97.9044 215.372 97.375 214.113 97.375 212.8ZM281.625 212.8V173.2C281.625 171.887 281.096 170.628 280.153 169.7C279.211 168.772 277.933 168.25 276.6 168.25H261.525C260.192 168.25 258.914 168.772 257.972 169.7C257.029 170.628 256.5 171.887 256.5 173.2V212.8C256.5 214.113 257.029 215.372 257.972 216.3C258.914 217.228 260.192 217.75 261.525 217.75H276.6C277.933 217.75 279.211 217.228 280.153 216.3C281.096 215.372 281.625 214.113 281.625 212.8Z" stroke="white" stroke-width="15" stroke-linecap="round" stroke-linejoin="round"/>
<path d="M407.44 145.144V198.904C407.44 204.28 408.763 208.419 411.408 211.32C414.053 214.221 417.936 215.672 423.056 215.672C428.176 215.672 432.101 214.221 434.832 211.32C437.563 208.419 438.928 204.28 438.928 198.904V145.144H460.816V198.776C460.816 206.797 459.109 213.581 455.696 219.128C452.283 224.675 447.675 228.856 441.872 231.672C436.155 234.488 429.755 235.896 422.672 235.896C415.589 235.896 409.232 234.531 403.6 231.8C398.053 228.984 393.659 224.803 390.416 219.256C387.173 213.624 385.552 206.797 385.552 198.776V145.144H407.44ZM498.074 175.48C500.634 171.555 503.834 168.483 507.674 166.264C511.514 163.96 515.781 162.808 520.474 162.808V185.976H514.458C508.997 185.976 504.901 187.171 502.17 189.56C499.439 191.864 498.074 195.96 498.074 201.848V235H476.186V163.576H498.074V175.48ZM552.824 173.688C554.872 170.36 557.816 167.672 561.656 165.624C565.496 163.576 569.891 162.552 574.84 162.552C580.728 162.552 586.061 164.045 590.84 167.032C595.619 170.019 599.373 174.285 602.104 179.832C604.92 185.379 606.328 191.821 606.328 199.16C606.328 206.499 604.92 212.984 602.104 218.616C599.373 224.163 595.619 228.472 590.84 231.544C586.061 234.531 580.728 236.024 574.84 236.024C569.805 236.024 565.411 235.043 561.656 233.08C557.901 231.032 554.957 228.344 552.824 225.016V235H530.936V140.28H552.824V173.688ZM584.056 199.16C584.056 193.699 582.52 189.432 579.448 186.36C576.461 183.203 572.749 181.624 568.312 181.624C563.96 181.624 560.248 183.203 557.176 186.36C554.189 189.517 552.696 193.827 552.696 199.288C552.696 204.749 554.189 209.059 557.176 212.216C560.248 215.373 563.96 216.952 568.312 216.952C572.664 216.952 576.376 215.373 579.448 212.216C582.52 208.973 584.056 204.621 584.056 199.16ZM613.459 199.16C613.459 191.821 614.824 185.379 617.555 179.832C620.371 174.285 624.168 170.019 628.947 167.032C633.726 164.045 639.059 162.552 644.947 162.552C649.982 162.552 654.376 163.576 658.131 165.624C661.971 167.672 664.915 170.36 666.963 173.688V163.576H688.851V235H666.963V224.888C664.83 228.216 661.843 230.904 658.003 232.952C654.248 235 649.854 236.024 644.819 236.024C639.016 236.024 633.726 234.531 628.947 231.544C624.168 228.472 620.371 224.163 617.555 218.616C614.824 212.984 613.459 206.499 613.459 199.16ZM666.963 199.288C666.963 193.827 665.427 189.517 662.355 186.36C659.368 183.203 655.699 181.624 651.347 181.624C646.995 181.624 643.283 183.203 640.211 186.36C637.224 189.432 635.731 193.699 635.731 199.16C635.731 204.621 637.224 208.973 640.211 212.216C643.283 215.373 646.995 216.952 651.347 216.952C655.699 216.952 659.368 215.373 662.355 212.216C665.427 209.059 666.963 204.749 666.963 199.288ZM748.206 162.808C756.569 162.808 763.225 165.539 768.174 171C773.209 176.376 775.726 183.8 775.726 193.272V235H753.966V196.216C753.966 191.437 752.729 187.725 750.254 185.08C747.779 182.435 744.451 181.112 740.27 181.112C736.089 181.112 732.761 182.435 730.286 185.08C727.811 187.725 726.574 191.437 726.574 196.216V235H704.686V163.576H726.574V173.048C728.793 169.891 731.779 167.416 735.534 165.624C739.289 163.747 743.513 162.808 748.206 162.808ZM850.584 173.56C848.963 170.573 846.616 168.312 843.544 166.776C840.557 165.155 837.016 164.344 832.92 164.344C825.837 164.344 820.163 166.691 815.896 171.384C811.629 175.992 809.496 182.179 809.496 189.944C809.496 198.221 811.715 204.707 816.152 209.4C820.675 214.008 826.861 216.312 834.712 216.312C840.088 216.312 844.611 214.947 848.28 212.216C852.035 209.485 854.765 205.56 856.472 200.44H828.696V184.312H876.312V204.664C874.691 210.125 871.917 215.203 867.992 219.896C864.152 224.589 859.245 228.387 853.272 231.288C847.299 234.189 840.557 235.64 833.048 235.64C824.173 235.64 816.237 233.72 809.24 229.88C802.328 225.955 796.909 220.536 792.984 213.624C789.144 206.712 787.224 198.819 787.224 189.944C787.224 181.069 789.144 173.176 792.984 166.264C796.909 159.267 802.328 153.848 809.24 150.008C816.152 146.083 824.045 144.12 832.92 144.12C843.672 144.12 852.717 146.723 860.056 151.928C867.48 157.133 872.387 164.344 874.776 173.56H850.584ZM899.444 156.152C895.604 156.152 892.447 155.043 889.972 152.824C887.583 150.52 886.388 147.704 886.388 144.376C886.388 140.963 887.583 138.147 889.972 135.928C892.447 133.624 895.604 132.472 899.444 132.472C903.199 132.472 906.271 133.624 908.66 135.928C911.135 138.147 912.372 140.963 912.372 144.376C912.372 147.704 911.135 150.52 908.66 152.824C906.271 155.043 903.199 156.152 899.444 156.152ZM910.324 163.576V235H888.436V163.576H910.324ZM965.994 216.44V235H954.858C946.922 235 940.735 233.08 936.298 229.24C931.861 225.315 929.642 218.957 929.642 210.168V181.752H920.938V163.576H929.642V146.168H951.53V163.576H965.866V181.752H951.53V210.424C951.53 212.557 952.042 214.093 953.066 215.032C954.09 215.971 955.797 216.44 958.186 216.44H965.994Z" fill="#F14545"/>
</svg>
